<svg width="1548" height="727" viewBox="0 0 1548 727" fill="none" xmlns="http://www.w3.org/2000/svg">
<path d="M1541.95 143.168C1553.26 182.611 1542.76 226.413 1513.83 271.934C1484.89 317.454 1437.6 364.585 1375.55 410.589C1251.47 502.591 1068.59 589.951 856.321 650.819C644.05 711.687 442.665 734.513 288.685 722.243C211.691 716.108 146.605 701.202 97.9475 677.931C49.2887 654.659 17.1677 623.079 5.85755 583.636C-5.45259 544.193 5.05285 500.39 33.9857 454.869C62.9176 409.35 110.215 362.218 172.258 316.215C296.338 224.212 479.219 136.852 691.49 75.9845C903.761 15.1167 1105.15 -7.70989 1259.13 4.56016C1336.12 10.6955 1401.21 25.6017 1449.86 48.8728C1498.52 72.1446 1530.64 103.724 1541.95 143.168Z" stroke="black" stroke-width="2"/>
</svg>
